<svg xmlns="http://www.w3.org/2000/svg" width="1024" height="1024" fill="none"><defs><clipPath id="a" class="frame-clip frame-clip-def"><rect width="1024" height="1024" rx="0" ry="0"/></clipPath></defs><g class="frame-container-wrapper"><g class="frame-container-blur"><g class="frame-container-shadows" clip-path="url(#a)"><g class="fills"><rect width="1024" height="1024" class="frame-background" rx="0" ry="0"/></g><g class="frame-children"><path d="M346 682h340v106a64 64 0 0 1-64 64H410a64 64 0 0 1-64-64z" class="fills" style="fill:oklch(55.3% 0.195 38.402);fill-opacity:1" transform="matrix(-1 0 0 1 1032 0)"/><path d="M91 427h340v106a64 64 0 0 1-64 64H155a64 64 0 0 1-64-64z" class="fills" style="fill:oklch(55.3% 0.195 38.402);fill-opacity:1" transform="matrix(0 -1 -1 0 773 773)"/><path d="M344.6 172h340v106a64 64 0 0 1-64 64h-212a64 64 0 0 1-64-64z" class="fills" style="fill:oklch(55.3% 0.195 38.402);fill-opacity:1" transform="matrix(1 0 0 -1 0 514)"/></g></g></g></g></svg>