<svg width="1024" xmlns="http://www.w3.org/2000/svg" height="1024" id="screenshot-e969047e-e2a0-805d-8007-a34fcfd92d6a" viewBox="0 0 1024 1024" xmlns:xlink="http://www.w3.org/1999/xlink" fill="none" version="1.1"><g id="shape-e969047e-e2a0-805d-8007-a34fcfd92d6a"><defs><clipPath id="frame-clip-e969047e-e2a0-805d-8007-a34fcfd92d6a-render-1" class="frame-clip frame-clip-def"><rect rx="0" ry="0" x="0" y="0" width="1024" height="1024" transform="matrix(1.000000, 0.000000, 0.000000, 1.000000, 0.000000, 0.000000)"/></clipPath></defs><g class="frame-container-wrapper"><g class="frame-container-blur"><g class="frame-container-shadows"><g clip-path="url(#frame-clip-e969047e-e2a0-805d-8007-a34fcfd92d6a-render-1)" fill="none"><g class="fills" id="fills-e969047e-e2a0-805d-8007-a34fcfd92d6a"><rect rx="0" ry="0" x="0" y="0" width="1024" height="1024" transform="matrix(1.000000, 0.000000, 0.000000, 1.000000, 0.000000, 0.000000)" class="frame-background"/></g><g class="frame-children"><g id="shape-e969047e-e2a0-805d-8007-a34fcfd92d6b" rx="0" ry="0"><g id="shape-e969047e-e2a0-805d-8007-a34fcfd92d6c"><g class="fills" id="fills-e969047e-e2a0-805d-8007-a34fcfd92d6c"><path d="M72,574.90185546875L265.47509765625,285.5546875L458.95068359375,285.5546875L277.95654296875,574.90185546875M458.95068359375,285.5546875L458.95068359375,285.5546875" style="fill: rgb(255, 93, 25); fill-opacity: 1;"/></g></g><g id="shape-e969047e-e2a0-805d-8007-a34fcfd92d6d"><g class="fills" id="fills-e969047e-e2a0-805d-8007-a34fcfd92d6d"><path d="M464.84912109375,864.2470703125L265.47509765625,864.2470703125L72,574.90185546875L277.95654296875,574.90185546875L464.84912109375,864.2470703125" style="fill: rgb(255, 93, 25); fill-opacity: 1;"/></g></g><g id="shape-e969047e-e2a0-805d-8007-a34fcfd92d6e"><g class="fills" id="fills-e969047e-e2a0-805d-8007-a34fcfd92d6e"><path d="M733.560546875,864.2470703125L464.84912109375,864.2470703125L464.84912109375,864.2470703125L583.763671875,700.58349609375L733.560546875,700.58349609375L733.560546875,864.2470703125" style="fill: rgb(255, 93, 25); fill-opacity: 1;"/></g></g><g id="shape-e969047e-e2a0-805d-8007-a34fcfd92d6f"><g class="fills" id="fills-e969047e-e2a0-805d-8007-a34fcfd92d6f"><path d="M377.8154296875,159.7529296875L583.779296875,159.7529296875L952,700.7041015625L733.560546875,700.58349609375" style="fill: rgb(255, 93, 25); fill-opacity: 1;"/></g></g></g></g></g></g></g></g></g></svg>